<svg id="visual" viewBox="0 0 900 600" width="900" height="600" xmlns="http://www.w3.org/2000/svg" xmlns:xlink="http://www.w3.org/1999/xlink" version="1.1"><g transform="translate(412.3735450350488 273.7715973361147)"><path d="M82.1 -132.8C111.8 -125 145.1 -114 180.4 -91.3C215.6 -68.7 252.8 -34.3 259.6 3.9C266.4 42.2 242.7 84.3 219.4 127.6C196.1 170.9 173 215.4 136.5 232.5C100 249.5 50 239.3 3.1 233.9C-43.8 228.6 -87.7 228.2 -118.3 207.7C-148.9 187.2 -166.2 146.6 -176.1 108.6C-186.1 70.7 -188.5 35.3 -181.6 4C-174.7 -27.3 -158.4 -54.7 -147.9 -91.6C-137.4 -128.6 -132.7 -175.1 -109 -186.5C-85.3 -197.8 -42.7 -173.9 -8.3 -159.6C26.2 -145.3 52.3 -140.6 82.1 -132.8" fill="none" stroke="#BB004B" stroke-width="6"></path></g></svg>