<svg xmlns="http://www.w3.org/2000/svg" xmlns:xlink="http://www.w3.org/1999/xlink" version="1.1" width="1000" height="1000" viewBox="0 0 1000 1000" xml:space="preserve">
<desc>Created with Fabric.js 3.5.0</desc>
<defs>
</defs>
<rect x="0" y="0" width="100%" height="100%" fill="rgba(255,255,255,0)"/>
<g transform="matrix(-0.9434 0 0 0.9434 500.002 500.0006)" id="153484">
<g style="" vector-effect="non-scaling-stroke">
		<g transform="matrix(1 0 0 1 0 75.5)" id="visual">
<path style="stroke: none; stroke-width: 1; stroke-dasharray: none; stroke-linecap: butt; stroke-dashoffset: 0; stroke-linejoin: miter; stroke-miterlimit: 4; is-custom-font: none; font-file-url: none; fill: rgb(90,16,194); fill-rule: nonzero; opacity: 1;" transform=" translate(-530, -225.5)" d="M 0 150 L 19.7 158.8 C 39.3 167.7 78.7 185.3 118 185.2 C 157.3 185 196.7 167 235.8 164.7 C 275 162.3 314 175.7 353.2 175.8 C 392.3 176 431.7 163 471 161.2 C 510.3 159.3 549.7 168.7 589 179.2 C 628.3 189.7 667.7 201.3 706.8 193.8 C 746 186.3 785 159.7 824.2 155.7 C 863.3 151.7 902.7 170.3 942 184.2 C 981.3 198 1020.7 207 1040.3 211.5 L 1060 216 L 1060 301 L 1040.3 301 C 1020.7 301 981.3 301 942 301 C 902.7 301 863.3 301 824.2 301 C 785 301 746 301 706.8 301 C 667.7 301 628.3 301 589 301 C 549.7 301 510.3 301 471 301 C 431.7 301 392.3 301 353.2 301 C 314 301 275 301 235.8 301 C 196.7 301 157.3 301 118 301 C 78.7 301 39.3 301 19.7 301 L 0 301 Z" stroke-linecap="round"/>
</g>
		<g transform="matrix(1 0 0 1 0 80)" id="visual">
<path style="stroke: none; stroke-width: 1; stroke-dasharray: none; stroke-linecap: butt; stroke-dashoffset: 0; stroke-linejoin: miter; stroke-miterlimit: 4; is-custom-font: none; font-file-url: none; fill: rgb(87,28,174); fill-rule: nonzero; opacity: 1;" transform=" translate(-530, -230)" d="M 0 221 L 19.7 223.7 C 39.3 226.3 78.7 231.7 118 225 C 157.3 218.3 196.7 199.7 235.8 193.3 C 275 187 314 193 353.2 200.5 C 392.3 208 431.7 217 471 218 C 510.3 219 549.7 212 589 209 C 628.3 206 667.7 207 706.8 205.8 C 746 204.7 785 201.3 824.2 193.2 C 863.3 185 902.7 172 942 165.5 C 981.3 159 1020.7 159 1040.3 159 L 1060 159 L 1060 301 L 1040.3 301 C 1020.7 301 981.3 301 942 301 C 902.7 301 863.3 301 824.2 301 C 785 301 746 301 706.8 301 C 667.7 301 628.3 301 589 301 C 549.7 301 510.3 301 471 301 C 431.7 301 392.3 301 353.2 301 C 314 301 275 301 235.8 301 C 196.7 301 157.3 301 118 301 C 78.7 301 39.3 301 19.7 301 L 0 301 Z" stroke-linecap="round"/>
</g>
		<g transform="matrix(1 0 0 1 0 98.8711)" id="visual">
<path style="stroke: none; stroke-width: 1; stroke-dasharray: none; stroke-linecap: butt; stroke-dashoffset: 0; stroke-linejoin: miter; stroke-miterlimit: 4; is-custom-font: none; font-file-url: none; fill: rgb(84,36,155); fill-rule: nonzero; opacity: 1;" transform=" translate(-530, -248.8711)" d="M 0 233 L 19.7 234.7 C 39.3 236.3 78.7 239.7 118 242.8 C 157.3 246 196.7 249 235.8 249.3 C 275 249.7 314 247.3 353.2 239.7 C 392.3 232 431.7 219 471 209.5 C 510.3 200 549.7 194 589 198 C 628.3 202 667.7 216 706.8 217.2 C 746 218.3 785 206.7 824.2 207.2 C 863.3 207.7 902.7 220.3 942 220.8 C 981.3 221.3 1020.7 209.7 1040.3 203.8 L 1060 198 L 1060 301 L 1040.3 301 C 1020.7 301 981.3 301 942 301 C 902.7 301 863.3 301 824.2 301 C 785 301 746 301 706.8 301 C 667.7 301 628.3 301 589 301 C 549.7 301 510.3 301 471 301 C 431.7 301 392.3 301 353.2 301 C 314 301 275 301 235.8 301 C 196.7 301 157.3 301 118 301 C 78.7 301 39.3 301 19.7 301 L 0 301 Z" stroke-linecap="round"/>
</g>
		<g transform="matrix(1 0 0 1 0 107)" id="visual">
<path style="stroke: none; stroke-width: 1; stroke-dasharray: none; stroke-linecap: butt; stroke-dashoffset: 0; stroke-linejoin: miter; stroke-miterlimit: 4; is-custom-font: none; font-file-url: none; fill: rgb(80,41,136); fill-rule: nonzero; opacity: 1;" transform=" translate(-530, -257)" d="M 0 213 L 19.7 214.8 C 39.3 216.7 78.7 220.3 118 228.2 C 157.3 236 196.7 248 235.8 246.7 C 275 245.3 314 230.7 353.2 225 C 392.3 219.3 431.7 222.7 471 227.2 C 510.3 231.7 549.7 237.3 589 236.3 C 628.3 235.3 667.7 227.7 706.8 230.5 C 746 233.3 785 246.7 824.2 246.7 C 863.3 246.7 902.7 233.3 942 228.7 C 981.3 224 1020.7 228 1040.3 230 L 1060 232 L 1060 301 L 1040.3 301 C 1020.7 301 981.3 301 942 301 C 902.7 301 863.3 301 824.2 301 C 785 301 746 301 706.8 301 C 667.7 301 628.3 301 589 301 C 549.7 301 510.3 301 471 301 C 431.7 301 392.3 301 353.2 301 C 314 301 275 301 235.8 301 C 196.7 301 157.3 301 118 301 C 78.7 301 39.3 301 19.7 301 L 0 301 Z" stroke-linecap="round"/>
</g>
		<g transform="matrix(1 0 0 1 0 122.9771)" id="visual">
<path style="stroke: none; stroke-width: 1; stroke-dasharray: none; stroke-linecap: butt; stroke-dashoffset: 0; stroke-linejoin: miter; stroke-miterlimit: 4; is-custom-font: none; font-file-url: none; fill: rgb(75,45,117); fill-rule: nonzero; opacity: 1;" transform=" translate(-530, -272.977)" d="M 0 257 L 19.7 254.7 C 39.3 252.3 78.7 247.7 118 245.8 C 157.3 244 196.7 245 235.8 249.5 C 275 254 314 262 353.2 265.3 C 392.3 268.7 431.7 267.3 471 268.2 C 510.3 269 549.7 272 589 269.5 C 628.3 267 667.7 259 706.8 254 C 746 249 785 247 824.2 248.3 C 863.3 249.7 902.7 254.3 942 256.3 C 981.3 258.3 1020.7 257.7 1040.3 257.3 L 1060 257 L 1060 301 L 1040.3 301 C 1020.7 301 981.3 301 942 301 C 902.7 301 863.3 301 824.2 301 C 785 301 746 301 706.8 301 C 667.7 301 628.3 301 589 301 C 549.7 301 510.3 301 471 301 C 431.7 301 392.3 301 353.2 301 C 314 301 275 301 235.8 301 C 196.7 301 157.3 301 118 301 C 78.7 301 39.3 301 19.7 301 L 0 301 Z" stroke-linecap="round"/>
</g>
</g>
</g>
</svg>