<svg id="visual" viewBox="0 0 1060 300" width="1060" height="300" xmlns="http://www.w3.org/2000/svg" xmlns:xlink="http://www.w3.org/1999/xlink" version="1.1"><path d="M0 122L25.2 120C50.3 118 100.7 114 151.2 111.3C201.7 108.7 252.3 107.3 302.8 103.3C353.3 99.3 403.7 92.7 454.2 94.8C504.7 97 555.3 108 605.8 110.7C656.3 113.3 706.7 107.7 757.2 101.3C807.7 95 858.3 88 908.8 89.3C959.3 90.7 1009.7 100.3 1034.8 105.2L1060 110L1060 0L1034.8 0C1009.7 0 959.3 0 908.8 0C858.3 0 807.7 0 757.2 0C706.7 0 656.3 0 605.8 0C555.3 0 504.7 0 454.2 0C403.7 0 353.3 0 302.8 0C252.3 0 201.7 0 151.2 0C100.7 0 50.3 0 25.2 0L0 0Z" fill="#5e10c3"></path><path d="M0 95L25.2 91.7C50.3 88.3 100.7 81.7 151.2 81.8C201.7 82 252.3 89 302.8 91C353.3 93 403.7 90 454.2 86.7C504.7 83.3 555.3 79.7 605.8 75.5C656.3 71.3 706.7 66.7 757.2 64.7C807.7 62.7 858.3 63.3 908.8 65.7C959.3 68 1009.7 72 1034.8 74L1060 76L1060 0L1034.8 0C1009.7 0 959.3 0 908.8 0C858.3 0 807.7 0 757.2 0C706.7 0 656.3 0 605.8 0C555.3 0 504.7 0 454.2 0C403.7 0 353.3 0 302.8 0C252.3 0 201.7 0 151.2 0C100.7 0 50.3 0 25.2 0L0 0Z" fill="#5a1daf"></path><path d="M0 61L25.2 58.7C50.3 56.3 100.7 51.7 151.2 51.7C201.7 51.7 252.3 56.3 302.8 56.2C353.3 56 403.7 51 454.2 50.7C504.7 50.3 555.3 54.7 605.8 55C656.3 55.3 706.7 51.7 757.2 50.3C807.7 49 858.3 50 908.8 49.3C959.3 48.7 1009.7 46.3 1034.8 45.2L1060 44L1060 0L1034.8 0C1009.7 0 959.3 0 908.8 0C858.3 0 807.7 0 757.2 0C706.7 0 656.3 0 605.8 0C555.3 0 504.7 0 454.2 0C403.7 0 353.3 0 302.8 0C252.3 0 201.7 0 151.2 0C100.7 0 50.3 0 25.2 0L0 0Z" fill="#55249b"></path><path d="M0 33L25.2 34.8C50.3 36.7 100.7 40.3 151.2 41.8C201.7 43.3 252.3 42.7 302.8 42.5C353.3 42.3 403.7 42.7 454.2 43.8C504.7 45 555.3 47 605.8 45.3C656.3 43.7 706.7 38.3 757.2 38.2C807.7 38 858.3 43 908.8 42.7C959.3 42.3 1009.7 36.7 1034.8 33.8L1060 31L1060 0L1034.8 0C1009.7 0 959.3 0 908.8 0C858.3 0 807.7 0 757.2 0C706.7 0 656.3 0 605.8 0C555.3 0 504.7 0 454.2 0C403.7 0 353.3 0 302.8 0C252.3 0 201.7 0 151.2 0C100.7 0 50.3 0 25.2 0L0 0Z" fill="#502988"></path><path d="M0 14L25.2 16C50.3 18 100.7 22 151.2 24.8C201.7 27.7 252.3 29.3 302.8 30.2C353.3 31 403.7 31 454.2 29.5C504.7 28 555.3 25 605.8 22.2C656.3 19.3 706.7 16.7 757.2 15.3C807.7 14 858.3 14 908.8 15.2C959.3 16.3 1009.7 18.7 1034.8 19.8L1060 21L1060 0L1034.8 0C1009.7 0 959.3 0 908.8 0C858.3 0 807.7 0 757.2 0C706.7 0 656.3 0 605.8 0C555.3 0 504.7 0 454.2 0C403.7 0 353.3 0 302.8 0C252.3 0 201.7 0 151.2 0C100.7 0 50.3 0 25.2 0L0 0Z" fill="#4b2d75"></path></svg>