<svg id="visual" viewBox="0 0 1060 300" width="1060" height="300" xmlns="http://www.w3.org/2000/svg" xmlns:xlink="http://www.w3.org/1999/xlink" version="1.1"><path d="M0 150L19.7 158.8C39.3 167.7 78.7 185.3 118 185.2C157.3 185 196.7 167 235.8 164.7C275 162.3 314 175.7 353.2 175.8C392.3 176 431.7 163 471 161.2C510.3 159.3 549.7 168.7 589 179.2C628.3 189.7 667.7 201.3 706.8 193.8C746 186.3 785 159.7 824.2 155.7C863.3 151.7 902.7 170.3 942 184.2C981.3 198 1020.7 207 1040.3 211.5L1060 216L1060 301L1040.3 301C1020.7 301 981.3 301 942 301C902.7 301 863.3 301 824.2 301C785 301 746 301 706.8 301C667.7 301 628.3 301 589 301C549.7 301 510.3 301 471 301C431.7 301 392.3 301 353.2 301C314 301 275 301 235.8 301C196.7 301 157.3 301 118 301C78.7 301 39.3 301 19.7 301L0 301Z" fill="#5a10c2"></path><path d="M0 221L19.7 223.7C39.3 226.3 78.7 231.7 118 225C157.3 218.3 196.7 199.7 235.8 193.3C275 187 314 193 353.2 200.5C392.3 208 431.7 217 471 218C510.3 219 549.7 212 589 209C628.3 206 667.7 207 706.8 205.8C746 204.7 785 201.3 824.2 193.2C863.3 185 902.7 172 942 165.5C981.3 159 1020.7 159 1040.3 159L1060 159L1060 301L1040.3 301C1020.7 301 981.3 301 942 301C902.7 301 863.3 301 824.2 301C785 301 746 301 706.8 301C667.7 301 628.3 301 589 301C549.7 301 510.3 301 471 301C431.7 301 392.3 301 353.2 301C314 301 275 301 235.8 301C196.7 301 157.3 301 118 301C78.7 301 39.3 301 19.7 301L0 301Z" fill="#571cae"></path><path d="M0 233L19.7 234.7C39.3 236.3 78.7 239.7 118 242.8C157.3 246 196.7 249 235.8 249.3C275 249.7 314 247.3 353.2 239.7C392.3 232 431.7 219 471 209.5C510.3 200 549.7 194 589 198C628.3 202 667.7 216 706.8 217.2C746 218.3 785 206.7 824.2 207.2C863.3 207.7 902.7 220.3 942 220.8C981.3 221.3 1020.7 209.7 1040.3 203.8L1060 198L1060 301L1040.3 301C1020.7 301 981.3 301 942 301C902.7 301 863.3 301 824.2 301C785 301 746 301 706.8 301C667.7 301 628.3 301 589 301C549.7 301 510.3 301 471 301C431.7 301 392.3 301 353.2 301C314 301 275 301 235.8 301C196.7 301 157.3 301 118 301C78.7 301 39.3 301 19.7 301L0 301Z" fill="#54249b"></path><path d="M0 213L19.7 214.8C39.3 216.7 78.7 220.3 118 228.2C157.3 236 196.7 248 235.8 246.7C275 245.3 314 230.7 353.2 225C392.3 219.3 431.7 222.7 471 227.2C510.3 231.7 549.7 237.3 589 236.3C628.3 235.3 667.7 227.7 706.8 230.5C746 233.3 785 246.7 824.2 246.7C863.3 246.7 902.7 233.3 942 228.7C981.3 224 1020.7 228 1040.3 230L1060 232L1060 301L1040.3 301C1020.7 301 981.3 301 942 301C902.7 301 863.3 301 824.2 301C785 301 746 301 706.8 301C667.7 301 628.3 301 589 301C549.7 301 510.3 301 471 301C431.7 301 392.3 301 353.2 301C314 301 275 301 235.8 301C196.7 301 157.3 301 118 301C78.7 301 39.3 301 19.7 301L0 301Z" fill="#502988"></path><path d="M0 257L19.7 254.7C39.3 252.3 78.7 247.7 118 245.8C157.3 244 196.7 245 235.8 249.5C275 254 314 262 353.2 265.3C392.3 268.7 431.7 267.3 471 268.2C510.3 269 549.7 272 589 269.5C628.3 267 667.7 259 706.8 254C746 249 785 247 824.2 248.3C863.3 249.7 902.7 254.3 942 256.3C981.3 258.3 1020.7 257.7 1040.3 257.3L1060 257L1060 301L1040.3 301C1020.7 301 981.3 301 942 301C902.7 301 863.3 301 824.2 301C785 301 746 301 706.8 301C667.7 301 628.3 301 589 301C549.7 301 510.3 301 471 301C431.7 301 392.3 301 353.2 301C314 301 275 301 235.8 301C196.7 301 157.3 301 118 301C78.7 301 39.3 301 19.7 301L0 301Z" fill="#4b2d75"></path></svg>